<svg width="16" height="18" viewBox="0 0 16 18" fill="none" xmlns="http://www.w3.org/2000/svg">
<path d="M13.2212 3.62745C13.1607 3.61704 11.9489 3.60663 11.9489 3.60663C11.9489 3.60663 10.9291 2.58617 10.8281 2.48204C10.7878 2.44038 10.7373 2.41956 10.6868 2.41956V17.9868L15.2407 16.8206C15.2407 16.8206 13.3828 3.86695 13.3727 3.77323C13.3525 3.67952 13.2818 3.63786 13.2212 3.62745Z" fill="white"/>
<path fill-rule="evenodd" clip-rule="evenodd" d="M13.2212 3.62727C13.2817 3.63768 13.3625 3.67934 13.3726 3.77306C13.3828 3.85636 15.2406 16.8204 15.2406 16.8204L10.6868 17.9867L0.175415 16.1123C0.175415 16.1123 1.42749 6.10554 1.47797 5.76191C1.53856 5.29334 1.55875 5.28292 2.03333 5.12673C2.04051 5.11932 2.37956 5.01188 2.91616 4.84183C3.13416 4.77275 3.38478 4.69333 3.659 4.60608C3.75998 3.85636 4.11338 2.88796 4.58795 2.1174C5.26448 1.01363 6.08236 0.399276 6.91035 0.37845C7.33446 0.368037 7.68785 0.513817 7.97054 0.826207C7.99075 0.857445 8.01097 0.878265 8.03112 0.899092C8.07155 0.888682 8.12203 0.888683 8.16239 0.888683C8.80865 0.888683 9.33374 1.26355 9.69723 1.98203C9.80828 2.2007 9.88908 2.41937 9.93955 2.5964C10.2627 2.49227 10.4545 2.42979 10.4545 2.42979C10.5353 2.40896 10.7271 2.37773 10.8281 2.48186C10.9291 2.58599 11.9489 3.60644 11.9489 3.60644C11.9489 3.60644 13.1606 3.61686 13.2212 3.62727ZM9.00552 2.89273C9.15032 2.84573 9.28661 2.80147 9.41446 2.763C9.28319 2.32566 8.98028 1.59676 8.34414 1.4718C8.53599 1.99245 8.58654 2.5964 8.59657 3.02333C8.7397 2.97906 8.87599 2.9348 9.00552 2.89273ZM7.62566 3.33572C7.76981 3.28993 7.91185 3.24481 8.05134 3.20034C8.05134 2.73176 8.01097 2.0341 7.77868 1.54469C7.53635 1.64882 7.33446 1.82584 7.18297 1.99245C6.78918 2.42979 6.46606 3.09621 6.29441 3.76264C6.74806 3.61449 7.19606 3.47219 7.62566 3.33572ZM7.41519 1.08652C7.27388 0.992812 7.11229 0.951158 6.92044 0.951158C5.64818 0.992813 4.53747 3.04415 4.23455 4.41865C4.27822 4.40464 4.32217 4.39053 4.36639 4.37634C4.78228 4.24285 5.22213 4.10167 5.67847 3.96048C5.84003 3.0858 6.24392 2.19029 6.76898 1.60717C6.97093 1.37809 7.19307 1.20106 7.41519 1.08652ZM7.63737 8.08395L8.16246 6.04305C8.16246 6.04305 7.70806 5.80356 6.79929 5.88686C4.487 6.04305 3.43688 7.7091 3.53785 9.35438C3.60587 10.4474 4.23377 10.9071 4.78411 11.3102C5.21424 11.6251 5.59699 11.9054 5.62801 12.4262C5.6482 12.7178 5.47654 13.1238 4.99187 13.1551C4.25477 13.1967 3.32581 12.4782 3.32581 12.4782L2.9724 14.0297C2.9724 14.0297 3.89126 15.0398 5.56742 14.9357C6.96086 14.842 7.93017 13.6965 7.82923 12.0096C7.74988 10.7192 6.86971 10.1366 6.17262 9.67508C5.71662 9.3732 5.33894 9.12315 5.31499 8.76083C5.30489 8.58383 5.31499 7.91738 6.34491 7.8549C7.05173 7.80285 7.63737 8.08395 7.63737 8.08395Z" fill="white"/>
</svg>
